<?xml version="1.0" encoding="UTF-8"?>
<svg version="1.1" xmlns="http://www.w3.org/2000/svg" width="1280" height="853">
<path d="M0 0 C142.78366774 -0.02014604 142.78366774 -0.02014604 182.288563 -0.02508167 C184.5924237 -0.0253696 186.8962844 -0.02565756 189.2001451 -0.02594624 C243.04869792 -0.0326929 296.89725077 -0.03806239 350.74580383 -0.04234314 C352.49529254 -0.04248259 354.24478125 -0.04262204 355.99426996 -0.04276149 C392.72347104 -0.04568472 429.45267212 -0.04840138 466.18187323 -0.05087968 C484.6345359 -0.05212499 503.08719857 -0.05340996 521.53986123 -0.05473244 C524.32322578 -0.05493169 527.10659032 -0.05512981 529.88995487 -0.05532788 C572.70601505 -0.05838474 615.52207494 -0.06228764 658.33813477 -0.06866455 C659.25741483 -0.06880145 660.17669489 -0.06893835 661.12383192 -0.0690794 C675.94358764 -0.07129153 690.76334336 -0.07357523 705.58309908 -0.07586844 C748.31362029 -0.08247947 791.04414129 -0.08855374 833.77466297 -0.09113979 C834.65500009 -0.09119333 835.5353372 -0.09124686 836.4423512 -0.09130202 C855.7766051 -0.09246829 875.110859 -0.09336291 894.44511293 -0.09400098 C902.2267785 -0.09426257 910.00844407 -0.0945632 917.79010963 -0.09487724 C918.64173282 -0.09491067 919.493356 -0.0949441 920.37078595 -0.09497854 C947.7250299 -0.09607159 975.07927222 -0.10033105 1002.43351551 -0.10628221 C1030.0312517 -0.11227165 1057.62898632 -0.1150925 1085.22672318 -0.11362399 C1089.05687363 -0.11342096 1092.88702408 -0.11325356 1096.71717453 -0.11310768 C1097.46786902 -0.1130778 1098.21856351 -0.11304792 1098.99200631 -0.11301713 C1110.7886022 -0.11263928 1122.5851947 -0.11559619 1134.38178967 -0.12000986 C1146.03588604 -0.12429951 1157.68997714 -0.12482548 1169.34407404 -0.12183181 C1175.55603937 -0.12033814 1181.76799358 -0.12031925 1187.97995766 -0.12488318 C1218.00083157 -0.14570728 1247.98971561 0.18308567 1278 1 C1279.12420641 8.68546031 1279.12420641 8.68546031 1279.1386652 12.10975742 C1279.14413962 12.84983628 1279.14961405 13.58991514 1279.15525436 14.35242063 C1279.15623249 15.1447145 1279.15721062 15.93700838 1279.15821838 16.75331116 C1279.16562562 18.04505596 1279.16562562 18.04505596 1279.17318249 19.36289662 C1279.18852514 22.24982314 1279.1969203 25.13672719 1279.20532227 28.02368164 C1279.21491988 30.11321319 1279.22492828 32.20274288 1279.23531246 34.29227066 C1279.26252544 40.03363689 1279.28351282 45.77501126 1279.30331039 51.51640725 C1279.32099498 56.43690902 1279.34210132 61.35739376 1279.36322176 66.2778818 C1279.42059817 79.6523556 1279.4707968 93.02684655 1279.51765215 106.40136021 C1279.54965246 115.52707003 1279.58340486 124.65277143 1279.61855791 133.77846964 C1279.89978015 206.85243755 1280.05808292 279.92604423 1280 506 C1273.20069165 506.02529479 1266.40139537 506.04284349 1259.60205078 506.05493164 C1257.28759304 506.05996943 1254.9731385 506.06679981 1252.65869141 506.07543945 C1249.3375571 506.08752924 1246.01646475 506.09323375 1242.6953125 506.09765625 C1241.13588425 506.10539818 1241.13588425 506.10539818 1239.54495239 506.11329651 C1238.10368484 506.11340981 1238.10368484 506.11340981 1236.63330078 506.11352539 C1235.78502716 506.115746 1234.93675354 506.11796661 1234.06277466 506.12025452 C1232 506 1232 506 1230 505 C1229.50205353 502.01535741 1229.10496314 499.06463187 1228.75 496.0625 C1226.52822238 479.70014036 1220.85170351 465.43508541 1213 451 C1212.45730469 449.97648437 1211.91460938 448.95296875 1211.35546875 447.8984375 C1199.50628743 426.50648486 1181.80106938 406.31996686 1162.7109375 391.16015625 C1160.98229941 389.78272561 1159.27609773 388.37631222 1157.6015625 386.93359375 C1134.65546033 367.28101729 1107.60174491 353.29141914 1079 344 C1078.98541748 343.15405273 1078.97083496 342.30810547 1078.95581055 341.43652344 C1078.89403052 338.23793341 1078.81975416 335.03992226 1078.73754883 331.84179688 C1078.70469956 330.46885756 1078.67654933 329.09579613 1078.65356445 327.72265625 C1078.48412587 317.85916746 1077.74270264 308.52743998 1073.88574219 299.34814453 C1072.00632414 294.36571819 1074.50845987 289.2209316 1076.0625 284.375 C1079.67507326 271.76407576 1078.53632408 260.67964978 1072.421875 248.98046875 C1065.16889535 237.03918919 1054.11376669 227.16048997 1040.30419922 223.4621582 C1032.20666264 221.83801784 1024.6032509 223.52906896 1016.75 225.5625 C1003.99593035 228.8630464 997.79648115 226.19643131 986.2890625 220.21289062 C978.11399104 216.1308489 969.86375313 213.95557359 961 212 C958.81875067 211.50767232 956.63760672 211.01487767 954.45654297 210.52172852 C948.09866505 209.0923521 941.73409608 207.69499967 935.36669922 206.30883789 C932.71515716 205.73125983 930.0648516 205.14845692 927.41552734 204.56079102 C906.38594128 199.89866894 885.52726189 195.73198994 863.9375 195.1875 C862.63369385 195.15253418 861.3298877 195.11756836 859.98657227 195.08154297 C812.51105923 194.05351084 763.70821976 204.07450631 721 225 C719.8850415 225.54309814 719.8850415 225.54309814 718.74755859 226.09716797 C702.64737272 234.03136809 688.34960513 244.03073648 675 256 C674.33742188 256.57878906 673.67484375 257.15757812 672.9921875 257.75390625 C662.62754956 267.3713261 650.55538377 284.39487751 649.79467773 298.9206543 C649.75291584 300.55506168 649.71620921 302.18960326 649.68359375 303.82421875 C649.66281265 304.68561966 649.64203156 305.54702057 649.62062073 306.43452454 C649.55525091 309.18543544 649.49629868 311.93644156 649.4375 314.6875 C649.39430283 316.55274421 649.35068815 318.4179788 649.30664062 320.28320312 C649.19958237 324.85537124 649.09827946 329.4276351 649 334 C648.41761063 334.18054932 647.83522125 334.36109863 647.23518372 334.54711914 C612.37134227 345.39194356 580.34013119 362.99006567 552 386 C550.99582031 386.80050781 549.99164062 387.60101563 548.95703125 388.42578125 C521.9497607 410.33144385 494.33717629 440.96119498 490 477 C489.41793727 485.77321359 489.61047582 494.56839913 490.51489258 503.31079102 C490.60555496 504.19404556 490.69621735 505.07730011 490.78962708 505.98731995 C490.85905014 506.65150436 490.92847321 507.31568878 491 508 C401.8555836 508.1167477 312.71534289 508.00691044 177.88214949 507.1831104 C164.03897244 507.09396663 150.19577 507.01025249 136.35253906 506.92993164 C119.89421358 506.8344357 103.43591169 506.73582373 86.9776355 506.63215441 C85.23398283 506.6211795 83.49033012 506.61020843 81.7466774 506.59924126 C80.89041994 506.59385375 80.03416248 506.58846624 79.15195783 506.58291547 C73.17726178 506.54553619 67.20255514 506.51037469 61.22784042 506.4761219 C54.04766235 506.43490116 46.86751539 506.39027596 39.6873868 506.34116179 C36.04424198 506.31632636 32.40110491 506.29304063 28.75792503 506.2739563 C24.82041681 506.25327938 20.88298276 506.2251228 16.94552612 506.19618225 C15.79620727 506.1913132 14.64688843 506.18644414 13.46274173 506.18142754 C12.41177126 506.1724697 11.36080078 506.16351186 10.27798271 506.15428257 C8.92009237 506.14573886 8.92009237 506.14573886 7.53476989 506.13702255 C5 506 5 506 0 505 C0 338.35 0 171.7 0 0 Z " fill="#000000" transform="translate(0,0)"/>
</svg>
